<svg width="256" height="256" viewBox="0 0 256 256" fill="none" xmlns="http://www.w3.org/2000/svg">
<path d="M214.663 30.2706C158.45 2.43678 90.0684 25.5245 62.2346 81.7377C34.4008 137.951 57.4885 206.333 113.704 234.168C115.092 234.855 116.771 234.286 117.457 232.9C118.143 231.515 117.578 229.835 116.19 229.148C62.7426 202.683 40.7903 137.67 67.2545 84.2233C93.7188 30.7761 158.73 8.82628 212.178 35.2905C213.566 35.9778 215.243 35.4114 215.93 34.0234C216.618 32.6353 216.049 30.9566 214.663 30.2706Z" fill="#1EE4FF"/>
<path d="M127.083 207.148C126.649 206.933 126.162 206.829 125.664 206.864C124.662 206.924 123.774 207.519 123.33 208.415L101.544 252.415C101.1 253.311 101.166 254.378 101.725 255.211C102.278 256.044 103.237 256.519 104.236 256.451L153.095 253.25C154.093 253.185 154.98 252.593 155.423 251.699C155.866 250.803 155.8 249.739 155.245 248.908L128.173 208.109C127.895 207.691 127.515 207.362 127.083 207.148ZM108.72 250.545L126.193 215.258L147.905 247.977L108.72 250.545Z" fill="#1EE4FF"/>
<path d="M73.9159 126.473C73.5695 126.301 73.1821 126.2 72.7712 126.184C71.2253 126.131 69.9273 127.339 69.8745 128.885C68.8642 158.009 81.637 186.439 104.046 204.939C105.236 205.919 107.001 205.755 107.989 204.563C108.974 203.369 108.804 201.604 107.613 200.62C86.5345 183.22 74.5173 156.477 75.4717 129.081C75.5111 127.947 74.8697 126.945 73.9159 126.473Z" fill="#1EE4FF"/>
<path d="M83.3889 89.0869C82.0034 88.4008 80.3234 88.966 79.6362 90.354C76.3142 97.0632 73.794 104.135 72.1499 111.375C71.8063 112.883 72.7541 114.39 74.2598 114.726C75.7679 115.07 77.2698 114.126 77.6109 112.616C79.1602 105.808 81.5292 99.1547 84.6561 92.8396C85.3434 91.4516 84.7744 89.7729 83.3889 89.0869Z" fill="#1EE4FF"/>
</svg>
