<svg width="256" height="256" viewBox="0 0 256 256" fill="none" xmlns="http://www.w3.org/2000/svg">
<path d="M41.3368 30.2706C97.55 2.43678 165.932 25.5245 193.765 81.7377C221.599 137.951 198.512 206.333 142.296 234.168C140.908 234.855 139.229 234.286 138.543 232.9C137.857 231.515 138.422 229.835 139.81 229.148C193.257 202.683 215.21 137.67 188.746 84.2233C162.281 30.7761 97.2696 8.82628 43.8224 35.2905C42.4344 35.9778 40.7569 35.4114 40.0696 34.0234C39.3824 32.6353 39.9513 30.9566 41.3368 30.2706Z" fill="#1EE4FF"/>
<path d="M128.917 207.148C129.351 206.933 129.838 206.829 130.336 206.864C131.338 206.924 132.226 207.519 132.67 208.415L154.456 252.415C154.9 253.311 154.834 254.378 154.275 255.211C153.722 256.044 152.763 256.519 151.764 256.451L102.905 253.25C101.907 253.185 101.02 252.593 100.577 251.699C100.134 250.803 100.2 249.739 100.755 248.908L127.827 208.109C128.105 207.691 128.485 207.362 128.917 207.148ZM147.28 250.545L129.807 215.258L108.095 247.977L147.28 250.545Z" fill="#1EE4FF"/>
<path d="M182.084 126.473C182.431 126.301 182.818 126.2 183.229 126.184C184.775 126.131 186.073 127.339 186.126 128.885C187.136 158.009 174.363 186.439 151.954 204.939C150.764 205.919 148.999 205.755 148.011 204.563C147.026 203.369 147.196 201.604 148.387 200.62C169.466 183.22 181.483 156.477 180.528 129.081C180.489 127.947 181.13 126.945 182.084 126.473Z" fill="#1EE4FF"/>
<path d="M172.611 89.0869C173.997 88.4008 175.677 88.966 176.364 90.354C179.686 97.0632 182.206 104.135 183.85 111.375C184.194 112.883 183.246 114.39 181.74 114.726C180.232 115.07 178.73 114.126 178.389 112.616C176.84 105.808 174.471 99.1547 171.344 92.8396C170.657 91.4516 171.226 89.7729 172.611 89.0869Z" fill="#1EE4FF"/>
</svg>
